<svg xmlns="http://www.w3.org/2000/svg" width="25" height="24" viewBox="0 0 25 24" fill="none">
<path d="M15.2706 6.98817C15.2706 7.77417 14.6876 8.47449 13.9844 8.95062C13.7199 9.12968 13.4636 9.25894 13.2588 9.33698V3.4117C13.2588 3.08847 13.3819 2.87663 13.5495 2.73699C13.7285 2.58779 13.9864 2.49994 14.2647 2.49994C14.543 2.49994 14.8009 2.58779 14.9799 2.73699C15.1475 2.87663 15.2706 3.08847 15.2706 3.4117V6.98817ZM7.48824 9.18229C8.26937 9.18229 8.96972 9.77478 9.44803 10.4959C9.63238 10.7739 9.76439 11.0435 9.84224 11.2568H3.91176C3.59244 11.2568 3.3813 11.133 3.24027 10.9602C3.08934 10.7753 3 10.5082 3 10.2195C3 9.93087 3.08934 9.66376 3.24027 9.47887C3.3813 9.30611 3.59244 9.18229 3.91176 9.18229H7.48824ZM17.4647 14.7705C16.6816 14.7705 15.9974 14.1909 15.5376 13.4903C15.3622 13.223 15.2377 12.964 15.1646 12.7588H21.0412C21.3861 12.7588 21.611 12.8867 21.7564 13.0556C21.9107 13.2348 22 13.4905 22 13.7646C22 14.0388 21.9107 14.2944 21.7564 14.4737C21.611 14.6426 21.3861 14.7705 21.0412 14.7705H17.4647ZM9.68235 16.9646C9.68235 16.1865 10.2713 15.5021 10.99 15.0401C11.2708 14.8596 11.5431 14.7325 11.7569 14.6598V20.5411C11.7569 20.8823 11.628 21.1064 11.4541 21.253C11.2691 21.4091 11.0042 21.4999 10.7196 21.4999C10.435 21.4999 10.1701 21.4091 9.98513 21.253C9.81123 21.1064 9.68235 20.8823 9.68235 20.5411V16.9646ZM11.9202 11.4202C12.2269 11.1135 12.726 11.1135 13.0327 11.4202C13.3394 11.7269 13.3394 12.226 13.0327 12.5327C12.726 12.8394 12.2269 12.8394 11.9202 12.5327C11.6135 12.226 11.6135 11.7269 11.9202 11.4202Z" stroke="#1E88E5"/>
</svg>