<svg width="25" height="24" viewBox="0 0 25 24" fill="#1E88E5" xmlns="http://www.w3.org/2000/svg">
<mask id="path-1-inside-1_3342_24586" fill="#1E88E5">
<path d="M15.1101 2.78659H10.3906L10.5086 2.31463C10.5479 2.11799 10.7053 2 10.9019 2H14.5989C14.7955 2 14.9528 2.11799 14.9922 2.31463L15.1101 2.78659Z"/>
</mask>
<path d="M15.1101 2.78659H10.3906L10.5086 2.31463C10.5479 2.11799 10.7053 2 10.9019 2H14.5989C14.7955 2 14.9528 2.11799 14.9922 2.31463L15.1101 2.78659Z" fill="#1E88E5"/>
<path d="M15.1101 2.78659V3.78659H16.3909L16.0803 2.54405L15.1101 2.78659ZM10.3906 2.78659L9.42048 2.54405L9.10985 3.78659H10.3906V2.78659ZM10.5086 2.31463L11.4788 2.55717L11.4845 2.53408L11.4892 2.51075L10.5086 2.31463ZM14.9922 2.31463L14.0116 2.51075L14.0162 2.53408L14.022 2.55717L14.9922 2.31463ZM15.1101 1.78659H10.3906V3.78659H15.1101V1.78659ZM11.3608 3.02912L11.4788 2.55717L9.53847 2.0721L9.42048 2.54405L11.3608 3.02912ZM11.4892 2.51075C11.4645 2.63432 11.3919 2.76949 11.2641 2.86989C11.1399 2.96748 11.0053 3 10.9019 3V1C10.2648 1 9.66777 1.41984 9.52803 2.11852L11.4892 2.51075ZM10.9019 3H14.5989V1H10.9019V3ZM14.5989 3C14.4955 3 14.3609 2.96748 14.2367 2.86989C14.1089 2.76949 14.0363 2.63432 14.0116 2.51075L15.9727 2.11852C15.833 1.41984 15.236 1 14.5989 1V3ZM14.022 2.55717L14.14 3.02912L16.0803 2.54405L15.9623 2.0721L14.022 2.55717Z" fill="#1E88E5" mask="url(#path-1-inside-1_3342_24586)"/>
<mask id="path-3-inside-2_3342_24586" fill="#1E88E5">
<path d="M19.0821 21.979C18.8855 22.0184 18.6495 21.9004 18.6102 21.7037L17.8236 18.3607H7.6766L6.89001 21.7037C6.85068 21.9004 6.61471 22.0577 6.41806 21.979C6.22141 21.9397 6.0641 21.7037 6.14276 21.5071C7.71593 14.7031 7.28331 16.6302 7.4013 16.001H8.22721L7.87325 17.5348H17.6663L17.3123 16.001H18.0989C19.8294 23.5129 19.2394 20.9171 19.3574 21.5071C19.3967 21.7037 19.2788 21.9397 19.0821 21.979Z"/>
</mask>
<path d="M19.0821 21.979C18.8855 22.0184 18.6495 21.9004 18.6102 21.7037L17.8236 18.3607H7.6766L6.89001 21.7037C6.85068 21.9004 6.61471 22.0577 6.41806 21.979C6.22141 21.9397 6.0641 21.7037 6.14276 21.5071C7.71593 14.7031 7.28331 16.6302 7.4013 16.001H8.22721L7.87325 17.5348H17.6663L17.3123 16.001H18.0989C19.8294 23.5129 19.2394 20.9171 19.3574 21.5071C19.3967 21.7037 19.2788 21.9397 19.0821 21.979Z" fill="#1E88E5"/>
<path d="M18.6102 21.7037L19.5907 21.5076L19.5874 21.4911L19.5836 21.4747L18.6102 21.7037ZM17.8236 18.3607L18.797 18.1317L18.6156 17.3607H17.8236V18.3607ZM7.6766 18.3607V17.3607H6.88459L6.70318 18.1317L7.6766 18.3607ZM6.89001 21.7037L5.9166 21.4747L5.91274 21.4911L5.90943 21.5076L6.89001 21.7037ZM6.41806 21.979L6.78945 21.0506L6.70421 21.0165L6.61418 20.9985L6.41806 21.979ZM6.14276 21.5071L7.07123 21.8785L7.09975 21.8072L7.11705 21.7324L6.14276 21.5071ZM7.4013 16.001V15.001H6.57137L6.41842 15.8167L7.4013 16.001ZM8.22721 16.001L9.2016 16.2258L9.48426 15.001H8.22721V16.001ZM7.87325 17.5348L6.89886 17.31L6.6162 18.5348H7.87325V17.5348ZM17.6663 17.5348V18.5348H18.9233L18.6406 17.31L17.6663 17.5348ZM17.3123 16.001V15.001H16.0552L16.3379 16.2258L17.3123 16.001ZM18.0989 16.001L19.0734 15.7765L18.8947 15.001H18.0989V16.001ZM19.3574 21.5071L20.338 21.311L19.3574 21.5071ZM18.886 20.9985C19.0398 20.9677 19.1719 20.9997 19.2728 21.0557C19.3758 21.1129 19.5397 21.2526 19.5907 21.5076L17.6296 21.8998C17.7199 22.3515 18.0215 22.6485 18.3015 22.804C18.5794 22.9584 18.9278 23.0297 19.2782 22.9596L18.886 20.9985ZM19.5836 21.4747L18.797 18.1317L16.8502 18.5898L17.6367 21.9328L19.5836 21.4747ZM17.8236 17.3607H7.6766V19.3607H17.8236V17.3607ZM6.70318 18.1317L5.9166 21.4747L7.86343 21.9328L8.65002 18.5898L6.70318 18.1317ZM5.90943 21.5076C5.95308 21.2894 6.08232 21.1581 6.19158 21.0913C6.30636 21.0212 6.53004 20.9468 6.78945 21.0506L6.04667 22.9075C6.50273 23.0899 6.94272 22.9762 7.23448 22.7979C7.52073 22.623 7.78762 22.3147 7.87059 21.8998L5.90943 21.5076ZM6.61418 20.9985C6.8324 21.0421 6.96368 21.1713 7.03045 21.2806C7.10059 21.3954 7.175 21.6191 7.07123 21.8785L5.21428 21.1357C5.03186 21.5918 5.14559 22.0317 5.32389 22.3235C5.49882 22.6098 5.80708 22.8766 6.22195 22.9596L6.61418 20.9985ZM7.11705 21.7324C7.90237 18.3359 8.18945 17.1083 8.29211 16.6634C8.31763 16.5528 8.33373 16.4821 8.34357 16.4364C8.34703 16.4204 8.37046 16.3215 8.37516 16.2134C8.38077 16.0844 8.37317 16.2384 8.37053 16.26C8.36887 16.2737 8.36973 16.2623 8.38417 16.1853L6.41842 15.8167C6.40336 15.897 6.39193 15.963 6.3852 16.0183C6.37749 16.0816 6.37205 16.2414 6.37704 16.1265C6.38113 16.0326 6.40118 15.9561 6.3885 16.0149C6.38222 16.044 6.36943 16.1006 6.34333 16.2137C6.23952 16.6635 5.95632 17.8743 5.16846 21.2818L7.11705 21.7324ZM7.4013 17.001H8.22721V15.001H7.4013V17.001ZM7.25282 15.7761L6.89886 17.31L8.84764 17.7597L9.2016 16.2258L7.25282 15.7761ZM7.87325 18.5348H17.6663V16.5348H7.87325V18.5348ZM18.6406 17.31L18.2867 15.7761L16.3379 16.2258L16.6919 17.7597L18.6406 17.31ZM17.3123 17.001H18.0989V15.001H17.3123V17.001ZM17.1244 16.2255C17.9902 19.9839 18.2746 21.2096 18.3582 21.5737C18.3833 21.6828 18.3838 21.6869 18.3802 21.6675C18.3793 21.6628 18.3772 21.6511 18.3749 21.6359C18.3738 21.6283 18.3719 21.615 18.37 21.5984C18.3687 21.5861 18.3648 21.5505 18.3641 21.5047C18.364 21.4799 18.3665 21.4173 18.3699 21.3795C18.3792 21.3144 18.4318 21.1263 18.4865 21.0087C18.6575 20.7808 19.2493 20.4951 19.6296 20.5244C19.8324 20.605 20.0853 20.796 20.1507 20.8712C20.2336 20.9769 20.2755 21.0775 20.2769 21.0805C20.2895 21.1087 20.298 21.1314 20.3017 21.1415C20.3097 21.1632 20.3151 21.1803 20.3168 21.1855C20.3192 21.1931 20.321 21.199 20.3219 21.202C20.3237 21.2081 20.3248 21.2123 20.325 21.2128C20.3253 21.2141 20.3252 21.2136 20.3238 21.2086C20.3229 21.2053 20.3211 21.1983 20.3194 21.1923C20.3166 21.1818 20.3105 21.1595 20.3039 21.1374C20.3015 21.1293 20.2938 21.1034 20.2828 21.0731C20.2791 21.063 20.2638 21.0202 20.2385 20.9688C20.2289 20.9492 20.1948 20.8801 20.1353 20.8023C20.1071 20.7653 20.041 20.6833 19.9341 20.6045C19.8361 20.5322 19.5872 20.3777 19.2358 20.4147C18.8494 20.4554 18.6172 20.6941 18.513 20.8476C18.4175 20.9882 18.382 21.1185 18.369 21.1712C18.3413 21.2844 18.3405 21.3764 18.3402 21.3981C18.3394 21.4613 18.3451 21.5113 18.3462 21.522C18.35 21.5564 18.3549 21.586 18.3569 21.5978C18.3621 21.6281 18.3691 21.6644 18.3768 21.7032L20.338 21.311C20.3347 21.2947 20.3324 21.2827 20.3308 21.2741C20.3291 21.265 20.3286 21.2621 20.3288 21.2633C20.3289 21.264 20.3295 21.2676 20.3303 21.2732C20.331 21.2779 20.3328 21.29 20.3346 21.3064C20.3354 21.3137 20.3408 21.3613 20.3401 21.4228C20.3398 21.4437 20.3391 21.535 20.3114 21.6479C20.2985 21.7004 20.2631 21.8305 20.1676 21.971C20.0635 22.1244 19.8313 22.3631 19.4451 22.4037C19.0938 22.4407 18.845 22.2863 18.7471 22.2141C18.6403 22.1354 18.5744 22.0535 18.5462 22.0166C18.487 21.9391 18.4532 21.8706 18.4439 21.8517C18.4193 21.8016 18.4048 21.7608 18.402 21.7532C18.3966 21.7383 18.3929 21.7269 18.3913 21.7219C18.3895 21.716 18.3882 21.7117 18.3876 21.7098C18.3861 21.7049 18.3863 21.7052 18.3893 21.7162C18.3901 21.7194 18.3956 21.7397 18.3986 21.7505C18.3996 21.7542 18.4016 21.7612 18.404 21.7694C18.4053 21.7735 18.4073 21.7804 18.4099 21.7887C18.4119 21.7948 18.4175 21.8125 18.4257 21.8346C18.4295 21.8449 18.4381 21.8678 18.4507 21.8961C18.4521 21.8993 18.4942 22 18.5771 22.1057C18.6425 22.181 18.8954 22.372 19.0982 22.4526C19.4785 22.4819 20.0704 22.1962 20.2413 21.9683C20.296 21.8507 20.3487 21.6626 20.358 21.5974C20.3614 21.5596 20.3639 21.4969 20.3638 21.472C20.3631 21.4261 20.3592 21.3903 20.3578 21.3778C20.356 21.361 20.354 21.3474 20.3528 21.3395C20.3504 21.3236 20.3482 21.311 20.3471 21.3052C20.3403 21.2683 20.3242 21.1986 20.3075 21.1259C20.2239 20.7623 19.938 19.53 19.0734 15.7765L17.1244 16.2255ZM18.3768 21.7032C18.3461 21.5494 18.378 21.4173 18.4341 21.3164C18.4913 21.2134 18.631 21.0495 18.886 20.9985L19.2782 22.9596C19.7299 22.8693 20.0269 22.5677 20.1824 22.2877C20.3368 22.0098 20.4081 21.6614 20.338 21.311L18.3768 21.7032Z" fill="#1E88E5" mask="url(#path-3-inside-2_3342_24586)"/>
<path d="M21.0994 14.4281V14.7147H4.4012V14.4281V4.35983V4.07324H21.0994V4.35983V14.4281ZM5.36206 12.5391L5.36197 12.5391L5.35501 12.548C4.82745 13.2263 5.28909 14.1809 6.14298 14.1809H19.3576C19.7705 14.1809 20.1021 13.9277 20.2428 13.5861C20.3858 13.2388 20.3253 12.8315 20.0627 12.5033L20.0628 12.5033L20.0576 12.4971L15.1808 6.59766L15.1795 6.59615C14.783 6.12029 14.0606 6.12029 13.6641 6.59615L13.6615 6.5992L10.4494 10.5164L9.47679 9.3492C9.08024 8.87335 8.35785 8.87335 7.96131 9.3492L7.96129 9.34918L7.9578 9.35346L5.36206 12.5391ZM12.0311 6.79825C12.0311 5.5782 11.06 4.60709 9.83994 4.60709C8.61989 4.60709 7.64877 5.5782 7.64877 6.79825C7.64877 8.0183 8.61989 8.98941 9.83994 8.98941C11.06 8.98941 12.0311 8.0183 12.0311 6.79825Z" fill="#1E88E5" stroke="#1E88E5"/>
</svg>
