<svg xmlns="http://www.w3.org/2000/svg" width="25" height="24" viewBox="0 0 25 24" fill="none" stroke="#1E88E5">
<mask id="path-1-inside-1_3404_14624" fill="white">
<path d="M18.7502 22.0003H6.25016C6.13966 22.0003 6.03367 21.9564 5.95553 21.8783C5.87739 21.8001 5.8335 21.6942 5.8335 21.5836V21.167H19.1668V21.5836C19.1668 21.6942 19.1229 21.8001 19.0448 21.8783C18.9667 21.9564 18.8607 22.0003 18.7502 22.0003Z"/>
</mask>
<path d="M5.8335 21.167V20.167H4.8335V21.167H5.8335ZM19.1668 21.167H20.1668V20.167H19.1668V21.167ZM18.7502 21.0003H6.25016V23.0003H18.7502V21.0003ZM6.25016 21.0003C6.40487 21.0003 6.55324 21.0618 6.66264 21.1712L5.24843 22.5854C5.51411 22.8511 5.87444 23.0003 6.25016 23.0003V21.0003ZM6.66264 21.1712C6.77204 21.2806 6.8335 21.4289 6.8335 21.5836H4.8335C4.8335 21.9594 4.98275 22.3197 5.24843 22.5854L6.66264 21.1712ZM6.8335 21.5836V21.167H4.8335V21.5836H6.8335ZM5.8335 22.167H19.1668V20.167H5.8335V22.167ZM18.1668 21.167V21.5836H20.1668V21.167H18.1668ZM18.1668 21.5836C18.1668 21.4289 18.2283 21.2806 18.3377 21.1712L19.7519 22.5854C20.0176 22.3197 20.1668 21.9594 20.1668 21.5836H18.1668ZM18.3377 21.1712C18.4471 21.0618 18.5955 21.0003 18.7502 21.0003V23.0003C19.1259 23.0003 19.4862 22.8511 19.7519 22.5854L18.3377 21.1712Z" fill="#1E88E5" mask="url(#path-1-inside-1_3404_14624)"/>
<path d="M17.9167 14.5003C17.916 14.7211 17.828 14.9327 17.6719 15.0888C17.5157 15.245 17.3041 15.333 17.0833 15.3336H16.5833C16.1155 16.2504 15.3527 16.9831 14.4178 17.4135C13.4828 17.844 12.4302 17.9473 11.4295 17.7067C10.4288 17.4661 9.53812 16.8957 8.90104 16.0873C8.26396 15.2789 7.91752 14.2796 7.91752 13.2503C7.91752 12.2211 8.26396 11.2218 8.90104 10.4134C9.53812 9.60496 10.4288 9.03454 11.4295 8.79395C12.4302 8.55336 13.4828 8.65662 14.4178 9.08709C15.3527 9.51756 16.1155 10.2502 16.5833 11.167L17.9167 14.5003ZM17.9167 14.5003V12.0003V14.5003ZM15.5602 12.1581C15.3852 11.6678 15.0935 11.2226 14.705 10.8635C14.1047 10.3087 13.3174 10.0005 12.5 10.0003L15.5602 12.1581ZM15.5602 12.1581C15.325 12.1026 15.0835 12.0746 14.8404 12.0753M15.5602 12.1581L12.4999 10.0003C11.638 10.0003 10.8114 10.3427 10.2019 10.9522C9.59241 11.5617 9.25 12.3884 9.25 13.2503V13.2518C9.24895 13.5977 9.30444 13.9406 9.41363 14.2673L10.3316 14.2795L10.3348 14.2796C10.6797 14.2863 11.0224 14.2231 11.3422 14.0938C11.6536 13.9678 11.9371 13.7816 12.1763 13.546C12.4546 13.1056 12.8378 12.7406 13.292 12.4839C13.7644 12.2169 14.2977 12.0762 14.8404 12.0753M14.8404 12.0753C14.8406 12.0753 14.8408 12.0753 14.841 12.0753L14.8417 12.575L14.8402 12.0753C14.8403 12.0753 14.8404 12.0753 14.8404 12.0753ZM16.8788 10.667C16.3541 9.77763 15.5693 9.06686 14.6269 8.63292C13.59 8.15549 12.4225 8.04097 11.3126 8.3078C10.2027 8.57463 9.21491 9.20729 8.50833 10.1039C7.80175 11.0005 7.41752 12.1088 7.41752 13.2503C7.41752 14.3919 7.80175 15.5002 8.50833 16.3967C9.21491 17.2933 10.2027 17.926 11.3126 18.1928C12.4225 18.4597 13.59 18.3451 14.6269 17.8677C15.5693 17.4338 16.3541 16.723 16.8788 15.8336L17.0833 15.8336L17.0848 15.8336C17.4377 15.8326 17.7759 15.6919 18.0254 15.4424C18.275 15.1929 18.4156 14.8547 18.4167 14.5018V14.5003L18.4167 12.0003L18.4167 11.9988C18.4156 11.6459 18.275 11.3078 18.0254 11.0582C17.7759 10.8087 17.4377 10.668 17.0848 10.667H17.0833H16.8788ZM5.59836 20.1519C5.53576 20.0894 5.50042 20.0046 5.5 19.9161V6.66698H19.5V19.916C19.4996 20.0045 19.4643 20.0893 19.4016 20.1519C19.339 20.2146 19.2542 20.2499 19.1657 20.2503H5.83432C5.74578 20.2499 5.66098 20.2146 5.59836 20.1519Z" stroke="#1E88E5"/>
<path d="M10.8322 5.20832C11.0082 5.20905 11.1827 5.17441 11.3451 5.10644C11.5061 5.03909 11.652 4.94036 11.7744 4.81606C11.8987 4.69366 11.9974 4.54773 12.0648 4.38676C12.133 4.22386 12.1676 4.04891 12.1667 3.87232L11.6667 3.87498L12.1667 3.87349C12.1656 3.52059 12.025 3.18244 11.7754 2.9329C11.5259 2.68336 11.1877 2.54271 10.8348 2.54165H10.8333H8.33333V2.54164L8.32962 2.54167C7.9778 2.54427 7.64112 2.6852 7.39233 2.93398C7.14354 3.18277 7.00262 3.51945 7.00001 3.87128L6.99999 3.87128L7 3.87648C7.00106 4.22938 7.14171 4.56752 7.39125 4.81707C7.64079 5.06661 7.97894 5.20726 8.33184 5.20832V5.20832H8.33333H10.8322ZM10.8322 5.20832C10.8317 5.20832 10.8312 5.20831 10.8307 5.20831L10.8333 4.70832M10.8322 5.20832H10.8333V4.70832M10.8333 4.70832H8.33333L11.4208 4.46248C11.3444 4.54082 11.253 4.60296 11.1521 4.6452C11.0512 4.68743 10.9428 4.7089 10.8333 4.70832ZM14.1667 5.20832L14.1682 5.20832C14.5211 5.20726 14.8592 5.0666 15.1087 4.81707C15.2458 4.68001 15.35 4.51622 15.4163 4.33794C15.4222 4.3538 15.4283 4.36956 15.4348 4.38523C15.5357 4.62886 15.7066 4.8371 15.9259 4.98361C16.1452 5.13012 16.403 5.20832 16.6667 5.20832L16.6682 5.20832C17.0211 5.20726 17.3592 5.0666 17.6087 4.81707C17.8583 4.56753 17.9989 4.22938 18 3.87648V3.87498C18 3.61128 17.9218 3.35349 17.7753 3.13422C17.6288 2.91496 17.4205 2.74406 17.1769 2.64315C16.9333 2.54223 16.6652 2.51582 16.4065 2.56727C16.1479 2.61872 15.9103 2.74571 15.7239 2.93218C15.5876 3.06841 15.4831 3.23193 15.4167 3.41101C15.3807 3.31405 15.3334 3.22111 15.2753 3.13422C15.1288 2.91496 14.9205 2.74406 14.6769 2.64315C14.4333 2.54223 14.1652 2.51582 13.9065 2.56727C13.6479 2.61872 13.4103 2.74571 13.2239 2.93218C13.0374 3.11865 12.9104 3.35622 12.859 3.61486C12.8075 3.87351 12.8339 4.14159 12.9348 4.38523C13.0357 4.62886 13.2066 4.8371 13.4259 4.98361C13.6452 5.13012 13.903 5.20832 14.1667 5.20832ZM6.66667 2.49998H18.3333C18.6428 2.49998 18.9395 2.6229 19.1583 2.84169C19.3771 3.06049 19.5 3.35723 19.5 3.66665V5.24998H5.5V3.66665C5.5 3.35723 5.62292 3.06049 5.84171 2.84169C6.0605 2.6229 6.35725 2.49998 6.66667 2.49998Z" stroke="#1E88E5"/>
<path d="M15.5602 12.1578C15.3852 11.6675 15.0935 11.2222 14.7051 10.8632C14.1047 10.3084 13.3174 10.0002 12.5 9.99998L15.5602 12.1578ZM15.5602 12.1578C15.325 12.1023 15.0835 12.0743 14.8404 12.075M15.5602 12.1578L12.4999 9.99998C11.638 10 10.8114 10.3424 10.2019 10.9519C9.59243 11.5614 9.25002 12.388 9.25002 13.25V13.2515H9.25001C9.24896 13.5973 9.30445 13.9403 9.41365 14.267L10.3317 14.2792L10.3348 14.2792C10.6797 14.286 11.0224 14.2228 11.3422 14.0935C11.6536 13.9675 11.9371 13.7813 12.1763 13.5456C12.4547 13.1052 12.8378 12.7402 13.292 12.4836C13.7645 12.2166 14.2978 12.0759 14.8404 12.075M14.8404 12.075C14.8406 12.075 14.8408 12.075 14.841 12.075L14.8417 12.575L14.8402 12.075C14.8403 12.075 14.8404 12.075 14.8404 12.075Z" stroke="#1E88E5"/>
<path d="M15.5602 12.1578C15.3852 11.6675 15.0935 11.2222 14.7051 10.8632C14.1047 10.3084 13.3174 10.0002 12.5 9.99998L15.5602 12.1578ZM15.5602 12.1578C15.325 12.1023 15.0835 12.0743 14.8404 12.075M15.5602 12.1578L12.4999 9.99998C11.638 10 10.8114 10.3424 10.2019 10.9519C9.59243 11.5614 9.25002 12.388 9.25002 13.25V13.2515H9.25001C9.24896 13.5973 9.30445 13.9403 9.41365 14.267L10.3317 14.2792L10.3348 14.2792C10.6797 14.286 11.0224 14.2228 11.3422 14.0935C11.6536 13.9675 11.9371 13.7813 12.1763 13.5456C12.4547 13.1052 12.8378 12.7402 13.292 12.4836C13.7645 12.2166 14.2978 12.0759 14.8404 12.075M14.8404 12.075C14.8406 12.075 14.8408 12.075 14.841 12.075L14.8417 12.575L14.8402 12.075C14.8403 12.075 14.8404 12.075 14.8404 12.075Z" stroke="#1E88E5"/>
</svg>