<svg width="25" height="24" viewBox="0 0 25 24" fill="#1E88E5" xmlns="http://www.w3.org/2000/svg">
<path d="M7.875 19.9163C7.875 20.6247 8.41667 21.1663 9.125 21.1663H9.375V21.9997H10.5V21.1663H15V21.9997H16.125V21.1663H16.375C17.0833 21.1663 17.625 20.6247 17.625 19.9163V9.83301H7.875V19.9163ZM8.875 11.458C8.875 11.208 9.04167 11.0413 9.29167 11.0413C9.54167 11.0413 9.70833 11.208 9.70833 11.458V12.708C9.70833 12.958 9.54167 13.1247 9.29167 13.1247C9.04167 13.1247 8.875 12.958 8.875 12.708V11.458Z" fill="#1E88E5"/>
<path d="M16.375 2H9.125C8.41667 2 7.875 2.54167 7.875 3.25V9H17.625V3.25C17.625 2.54167 17.0833 2 16.375 2ZM9.70833 7.75C9.70833 8 9.54167 8.16667 9.29167 8.16667C9.04167 8.16667 8.875 8 8.875 7.75V6.5C8.875 6.25 9.04167 6.08333 9.29167 6.08333C9.54167 6.08333 9.70833 6.25 9.70833 6.5V7.75Z" fill="#1E88E5"/>
</svg>
