<svg width="25" height="24" viewBox="0 0 25 24" fill="#1E88E5" xmlns="http://www.w3.org/2000/svg">
<path d="M9.26921 9.52902L9.06098 9.20592L8.69521 9.32409C7.60484 9.67636 5.97698 9.08535 4.80968 7.54291C4.15098 6.66094 3.82465 5.6834 3.81077 4.83216C3.79687 3.97963 4.09197 3.2963 4.62393 2.90135C5.15548 2.50672 5.89737 2.42183 6.71455 2.68184C7.53052 2.94146 8.37787 3.5364 9.03745 4.41908L9.03745 4.41908L9.0386 4.42061C10.1812 5.93744 10.2925 7.67354 9.6354 8.63396L9.41969 8.94923L9.66718 9.24023L11.3027 11.1633L10.7392 11.81L9.26921 9.52902Z" stroke="#1E88E5"/>
<path d="M13.5037 16.0882L14.3551 14.7595L18.5233 19.6319C18.5235 19.6321 18.5237 19.6323 18.5239 19.6326C18.9228 20.1035 18.8416 20.8062 18.3484 21.1833L18.3401 21.1896L18.3321 21.1963L18.2175 21.2918C17.7117 21.6589 17.0197 21.5229 16.6963 21.0167L16.6963 21.0167L16.6946 21.0141L13.5037 16.0882Z" stroke="#1E88E5"/>
<path d="M19.9722 6.23935L20.2941 5.827L18.1452 8.85036L17.7318 9.38774C17.7315 9.38807 17.7313 9.38841 17.731 9.38874C17.3498 9.87842 16.8691 10.1681 16.4375 10.2303C16.4369 10.2304 16.4364 10.2305 16.4359 10.2306L15.1982 10.3984L14.9692 10.4294L14.8444 10.624L8.19929 20.9913C7.84888 21.5129 7.15273 21.6299 6.67783 21.2735L6.56045 21.1757L6.5524 21.169L6.54408 21.1626C6.05119 20.7857 5.96973 20.0836 6.36795 19.6127C6.36835 19.6122 6.36875 19.6117 6.36915 19.6112L14.4238 10.2737L14.5747 10.0988L14.5393 9.8705L14.3505 8.65357C14.289 8.21724 14.4277 7.67656 14.781 7.19783L15.1972 6.65673L15.1989 6.65461L17.5282 3.65981C17.4185 3.81435 17.3031 3.97689 17.185 4.14323C16.5403 5.05101 15.8157 6.06965 15.4909 6.52018L15.4896 6.52197C15.2072 6.91737 15.3473 7.37389 15.6395 7.61744L15.6601 7.63454L15.6823 7.64936C16.0159 7.87177 16.4917 7.81762 16.7645 7.49032L16.7696 7.48417L16.7745 7.47786L18.5627 5.18748L18.8976 4.75853L16.8991 7.57384C16.899 7.5741 16.8988 7.57436 16.8986 7.57462C16.6169 7.96981 16.7569 8.4259 17.049 8.66931L17.0695 8.68641L17.0918 8.70123C17.4254 8.92364 17.9012 8.86949 18.174 8.54218L18.1791 8.53604L18.184 8.52973L19.9722 6.23935ZM18.7997 2.73134L18.421 2.46306L18.421 2.46303L18.7997 2.73134ZM18.4155 2.45914L18.4155 2.45918L18.392 2.4425C18.392 2.44249 18.392 2.44248 18.392 2.44246L18.4155 2.45914ZM21.2538 4.59452C21.2538 4.59453 21.2537 4.59454 21.2537 4.59455L21.2266 4.57334L21.2141 4.56363L20.8613 4.2881L21.2142 4.5636L21.2266 4.57331L21.2538 4.59452ZM19.8046 3.51176L19.4518 3.23623L19.8047 3.51173L19.8171 3.52144L19.8443 3.54265C19.8443 3.54266 19.8442 3.54267 19.8442 3.54268L19.8171 3.52147L19.8046 3.51176Z" stroke="#1E88E5"/>
</svg>
