<svg width="25" height="24" viewBox="0 0 25 24" fill="#1E88E5" xmlns="http://www.w3.org/2000/svg">
<path d="M10.3365 21.5004L11.4234 19.1339C11.849 19.2267 12.293 19.2768 12.7501 19.2768C13.2072 19.2768 13.6511 19.2267 14.0767 19.1339L15.1636 21.5004H10.3365Z" fill="#1E88E5" stroke="#1E88E5"/>
<path d="M17.1131 13.2786L17.1127 13.279C16.9534 13.4517 16.8953 13.6814 16.9109 13.8766C16.9109 13.8769 16.9109 13.8772 16.9109 13.8775L16.9113 13.882C16.9179 13.9659 16.9226 14.0245 16.9226 14.0823C16.9226 16.0369 15.1085 17.727 12.7504 17.727C10.5903 17.727 8.88669 16.3088 8.61583 14.5682H12.7504C12.9176 14.5682 13.0725 14.5152 13.1991 14.4251C13.3257 14.5152 13.4806 14.5682 13.6479 14.5682H14.3217C14.7497 14.5682 15.0965 14.2213 15.0965 13.7934C15.0965 13.4559 14.8807 13.1687 14.5795 13.0625H17.4336C17.2942 13.1134 17.1855 13.2002 17.1131 13.2786ZM13.3901 13.0625C13.3215 13.0867 13.2573 13.1203 13.1991 13.1617C13.1409 13.1203 13.0767 13.0867 13.0081 13.0625H13.3901Z" fill="#1E88E5" stroke="#1E88E5"/>
<path d="M14.4864 8.81161C14.4864 9.76867 13.7071 10.548 12.7502 10.548C11.7931 10.548 11.0137 9.76861 11.0137 8.81161V6.53629C11.0137 5.57927 11.7931 4.7998 12.7502 4.7998C13.7071 4.7998 14.4864 5.57921 14.4864 6.53629V8.81161Z" fill="#1E88E5" stroke="#1E88E5"/>
<path d="M16.7872 8.81195C16.7872 9.8206 16.4167 10.7664 15.7373 11.5126H14.6211C15.476 10.9188 16.0366 9.92977 16.0366 8.81195V6.53663C16.0366 4.72423 14.563 3.25051 12.7507 3.25051C10.9382 3.25051 9.46451 4.72418 9.46451 6.53663V8.81195C9.46451 9.92979 10.0251 10.9188 10.8801 11.5126H9.76371C9.08438 10.7664 8.71387 9.82059 8.71387 8.81195V6.53663C8.71387 4.31127 10.5252 2.5 12.7507 2.5C14.9759 2.5 16.7872 4.31124 16.7872 6.53663V8.81195Z" fill="#1E88E5" stroke="#1E88E5"/>
</svg>
