<svg width="25" height="24" viewBox="0 0 25 24" fill="#1E88E5" xmlns="http://www.w3.org/2000/svg">
<path d="M14.9175 8.6816L15.1295 8.85411C15.6626 9.28789 16.4428 9.28336 16.9752 8.80789L14.9175 8.6816ZM14.9175 8.6816L14.7832 8.44577C14.4476 7.8561 14.5586 7.08724 15.08 6.62118C15.2973 6.42701 15.6739 6.20367 16.1562 5.97297C16.6288 5.74693 17.1665 5.53061 17.6781 5.34162C18.1885 5.15304 18.6664 4.99403 19.017 4.88209C19.1201 4.84917 19.2121 4.82037 19.2904 4.79614C19.2566 4.87257 19.2165 4.96246 19.1708 5.06335C19.0173 5.40209 18.8018 5.86301 18.5533 6.35294C18.3043 6.84395 18.0252 7.35805 17.7447 7.80541C17.4585 8.26189 17.1927 8.61319 16.9755 8.80765L14.9175 8.6816ZM8.05063 20.3796L7.44159 15.7111H17.5569L16.9479 20.3796L16.9479 20.3798C16.8645 21.0209 16.3187 21.5 15.6722 21.5H9.32636C8.67981 21.5 8.13401 21.0209 8.05066 20.3798L8.05063 20.3796ZM5.90483 5.51285C5.84592 5.43111 5.7936 5.35772 5.74889 5.29455C5.82428 5.30224 5.91178 5.31148 6.00937 5.32228C6.36018 5.36114 6.83954 5.42014 7.35501 5.50076C7.87168 5.58157 8.41787 5.68305 8.90444 5.80592C9.4015 5.93143 9.79594 6.06958 10.0346 6.20953C10.5833 6.53173 10.8352 7.182 10.6805 7.7752L10.6128 8.03498L10.4516 8.2527C10.0442 8.80307 9.28275 8.96891 8.67405 8.61208C8.43541 8.472 8.1202 8.19374 7.76455 7.81889C7.41647 7.45201 7.05685 7.02202 6.72969 6.60776C6.40327 6.19445 6.11333 5.80213 5.90483 5.51285ZM11.874 12.4954H12.5708H12.7398H12.7737H17.8617C18.3744 12.4954 18.7896 12.9109 18.7896 13.4232V13.426C18.7896 13.9383 18.3744 14.3538 17.8617 14.3538H7.13892C6.62684 14.3538 6.21112 13.9381 6.21112 13.426V13.4232C6.21112 12.9111 6.62684 12.4954 7.13892 12.4954H11.874ZM12.9382 6.50018L12.7018 6.54054L12.4776 6.46452C12.1087 6.33937 11.8469 5.98941 11.853 5.5754L11.853 5.57483C11.8554 5.39577 11.9123 5.11453 12.0193 4.76068C12.1232 4.41733 12.2624 4.04296 12.4041 3.69238C12.5453 3.34291 12.6866 3.02331 12.7926 2.79078C12.8071 2.75905 12.8209 2.72898 12.834 2.7007C12.8459 2.72827 12.8586 2.75753 12.8718 2.78835C12.9714 3.02087 13.1039 3.34047 13.2355 3.68991C13.3675 4.04048 13.4964 4.41471 13.5907 4.75783C13.6878 5.11137 13.7369 5.39215 13.7344 5.57103L13.7344 5.57106C13.7279 6.03469 13.3838 6.42412 12.9382 6.50018Z" stroke="#1E88E5"/>
</svg>
