<svg width="24" height="24" viewBox="0 0 24 24" fill="#1E88E5" xmlns="http://www.w3.org/2000/svg">
<path d="M17.1112 16.2664C17.089 17.3552 16.9556 18.4219 16.7112 19.4886C16.6445 19.7552 16.4667 19.8886 16.2667 19.8441C16.0445 19.7997 15.9334 19.5997 16.0001 19.3552C16.2445 18.2886 16.3779 17.1997 16.3779 16.1108C16.3779 13.3775 14.489 11.133 11.8001 10.6441C8.84452 10.1108 5.93341 12.1997 5.48896 15.1775C5.46674 15.3552 5.44452 15.5552 5.4223 15.733C5.40008 15.9997 5.24452 16.133 5.0223 16.1108C4.8223 16.0886 4.68896 15.933 4.68896 15.6886C4.75563 14.3775 5.20008 13.1775 6.06674 12.1775C7.73341 10.2219 9.86674 9.44414 12.3556 10.0664C14.8445 10.6886 16.3779 12.3552 16.9779 14.8441C17.0223 15.0441 17.0445 15.2441 17.0667 15.4664C17.089 15.6886 17.1112 15.9775 17.1112 16.2664Z" fill="#1E88E5"/>
<path d="M18.5778 16.4215C18.5555 16.6881 18.5555 16.977 18.5333 17.2437C18.5111 17.5104 18.3555 17.6659 18.1555 17.6659C17.9333 17.6659 17.7778 17.4659 17.8 17.1993C17.8666 16.2881 17.8666 15.377 17.6666 14.4659C17.0444 11.7104 14.6666 9.51037 11.8444 9.15481C8.86664 8.77703 6.15553 10.177 4.73331 12.8215C4.59997 13.0659 4.44442 13.1326 4.24442 13.0881C4.02219 13.0215 3.93331 12.777 4.04442 12.5548C4.35553 11.9548 4.73331 11.377 5.19997 10.8881C7.35553 8.6437 9.95553 7.82148 12.9333 8.66592C15.9555 9.51037 17.7555 11.577 18.4444 14.6215C18.4889 14.8215 18.5111 15.0215 18.5333 15.2437C18.5555 15.6215 18.5555 16.0215 18.5778 16.4215Z" fill="#1E88E5"/>
<path d="M15.6666 16.2437C15.6222 17.7548 15.3333 19.2215 14.8666 20.6659C14.7777 20.9326 14.5999 21.0437 14.3777 20.977C14.1555 20.8882 14.0888 20.7104 14.1777 20.4215C14.6222 19.0882 14.8444 17.7326 14.911 16.3548C14.9777 14.2659 13.6888 12.5104 11.7555 12.1104C9.22216 11.577 6.93327 13.4215 6.8666 15.9993C6.84438 16.6215 6.75549 17.2215 6.55549 17.8215C6.53327 17.8659 6.53327 17.9326 6.51104 17.977C6.42215 18.1548 6.24438 18.2437 6.0666 18.177C5.88882 18.1104 5.75549 17.9326 5.82216 17.7548C6.11104 16.977 6.08882 16.177 6.17771 15.377C6.39993 13.3548 8.0666 11.6437 10.0444 11.3326C12.6888 10.9104 15.0444 12.5548 15.5333 15.177C15.6444 15.5548 15.6444 15.9104 15.6666 16.2437Z" fill="#1E88E5"/>
<path d="M19.7777 13.9548C19.7777 14.177 19.6666 14.3104 19.4889 14.3548C19.3111 14.3993 19.1333 14.2882 19.0666 14.0882C19 13.8437 18.9333 13.5993 18.8444 13.3548C17.6666 10.1548 15.4 8.22149 12.0222 7.7326C9.22219 7.31038 6.82219 8.22149 4.82219 10.2215C4.77775 10.2659 4.75553 10.2882 4.7333 10.3326C4.55553 10.5104 4.35553 10.5326 4.17775 10.377C4.02219 10.2215 4.02219 10.0215 4.19997 9.82149C5.11108 8.84371 6.17775 8.08816 7.42219 7.57705C12.5555 5.44371 18.4 8.37705 19.7777 13.777C19.7777 13.8437 19.7777 13.9104 19.7777 13.9548Z" fill="#1E88E5"/>
<path d="M14.2 16.4659C14.1111 18.1104 13.7333 19.6659 13.1333 21.177C13.0444 21.4215 12.8444 21.5326 12.6222 21.4437C12.4222 21.3548 12.3555 21.1548 12.4444 20.9104C12.9111 19.7548 13.2444 18.577 13.3555 17.3326C13.4 16.7326 13.4444 16.1326 13.3778 15.5326C13.2222 14.3548 12.1111 13.4882 10.9111 13.4659C9.68886 13.4659 8.59998 14.3326 8.39998 15.5104C8.31109 15.9993 8.33331 16.4882 8.26664 16.977C8.17775 17.777 7.91109 18.5104 7.59998 19.2437C7.51109 19.4659 7.28886 19.5326 7.11109 19.4437C6.93331 19.3548 6.84442 19.1548 6.93331 18.9548C7.19998 18.2882 7.44442 17.6215 7.53331 16.8882C7.57775 16.4437 7.57775 15.9993 7.64442 15.577C7.84442 13.9548 9.24442 12.7326 10.9111 12.7326C12.5333 12.7326 13.9555 13.9548 14.1555 15.5548C14.1778 15.8659 14.1778 16.1548 14.2 16.4659Z" fill="#1E88E5"/>
<path d="M11.3113 5.42188C14.7113 5.55521 17.7335 7.15521 19.8446 10.3774C19.8891 10.4441 19.9113 10.4885 19.9557 10.5552C20.0224 10.733 19.9779 10.9108 19.8224 10.9997C19.6668 11.0885 19.4891 11.0663 19.3557 10.933C19.3335 10.8885 19.2891 10.8663 19.2668 10.8219C17.6446 8.31076 15.3557 6.75521 12.4002 6.28854C9.86683 5.88854 7.5335 6.4441 5.37795 7.8441C5.31128 7.88854 5.24461 7.93299 5.17795 7.95521C5.02239 8.0441 4.82239 7.97743 4.71128 7.8441C4.60017 7.68854 4.62239 7.51076 4.75572 7.37743C4.80017 7.33299 4.86683 7.28854 4.9335 7.2441C6.75572 6.0441 8.7335 5.4441 11.3113 5.42188Z" fill="#1E88E5"/>
<path d="M12.7334 16.4215C12.6667 18.0659 12.2222 19.6437 11.5556 21.1326C11.5111 21.2437 11.3778 21.377 11.2667 21.4215C11.1778 21.4437 11 21.377 10.9334 21.3104C10.8 21.1993 10.8222 21.0437 10.8889 20.8881C11.1334 20.2659 11.3778 19.6437 11.5778 18.9993C11.8667 18.0437 12.0222 17.0659 12.0222 16.0659C12.0222 15.3993 11.5556 14.9104 10.9334 14.9104C10.3111 14.9104 9.84447 15.3993 9.84447 16.0659C9.7778 17.5326 9.3778 18.8881 8.7778 20.177C8.66669 20.3993 8.48892 20.4659 8.28892 20.3993C8.08892 20.3104 8.02225 20.1104 8.13336 19.8659C8.53336 18.977 8.86669 18.0437 9.00003 17.0659C9.04447 16.6659 9.04447 16.2437 9.08892 15.8215C9.20003 14.8215 10 14.1326 11 14.177C11.9334 14.2215 12.6889 14.9993 12.7334 15.977C12.7334 16.1548 12.7334 16.2881 12.7334 16.4215Z" fill="#1E88E5"/>
<path d="M19.2 7.35481C19.2666 7.46592 19.2666 7.62148 19.1778 7.71037C19.1333 7.75481 19.0889 7.82148 19.0444 7.8437C18.8889 7.93259 18.7555 7.86592 18.6222 7.75481C18.2444 7.4437 17.8889 7.11037 17.5111 6.8437C15.2444 5.22148 12.7111 4.53259 9.93331 4.75481C8.75553 4.8437 7.6222 5.13259 6.51109 5.59925C6.26664 5.68814 6.11109 5.66592 5.99998 5.51037C5.86664 5.31037 5.95553 5.06592 6.2222 4.95481C7.06664 4.59925 7.95553 4.33259 8.86665 4.17703C11.8 3.68814 14.5333 4.22148 17.0889 5.71037C17.8 6.13259 18.4666 6.6437 19.0889 7.22148C19.1333 7.2437 19.1778 7.28814 19.2 7.35481Z" fill="#1E88E5"/>
<path d="M10.889 2.55481C12.9779 2.53259 14.9779 2.97704 16.8446 3.91037C16.889 3.93259 16.9112 3.95481 16.9557 3.95481C17.1779 4.06592 17.2668 4.28815 17.1779 4.48815C17.089 4.68815 16.8668 4.73259 16.6446 4.62148C15.5112 4.06592 14.3335 3.66592 13.089 3.4437C11.7112 3.19926 10.3112 3.19926 8.93346 3.39926C8.8668 3.39926 8.80013 3.42148 8.75568 3.42148C8.53346 3.4437 8.37791 3.31037 8.35568 3.13259C8.31124 2.91037 8.44457 2.73259 8.6668 2.71037C9.08902 2.6437 9.48902 2.57704 9.91124 2.55481C10.2446 2.53259 10.5779 2.55481 10.889 2.55481Z" fill="#1E88E5"/>
<path d="M11.2666 16.5326C11.2 18.1548 10.7555 19.6437 10.0888 21.0659C9.97773 21.2881 9.77773 21.3548 9.59995 21.2659C9.39995 21.177 9.33328 20.977 9.4444 20.7326C9.8444 19.8437 10.2 18.9326 10.3555 17.977C10.4444 17.4215 10.4888 16.8659 10.5333 16.2881C10.5555 16.0215 10.6888 15.8437 10.8888 15.8437C11.1111 15.8437 11.2444 16.0215 11.2444 16.2881C11.2666 16.3993 11.2666 16.4881 11.2666 16.5326Z" fill="#1E88E5"/>
<path d="M2 2.51074C2.73333 2.51074 3.44444 2.51074 4.15556 2.51074C4.15556 2.75519 4.15556 2.97741 4.15556 3.22185C3.68889 3.22185 3.22222 3.22185 2.73333 3.22185C2.73333 3.71074 2.73333 4.17741 2.73333 4.6663C2.48889 4.6663 2.24444 4.6663 2 4.6663C2 3.97741 2 3.24408 2 2.51074Z" fill="#1E88E5"/>
<path d="M19.8223 3.24408C19.8223 2.97741 19.8223 2.75519 19.8223 2.51074C20.5334 2.51074 21.2667 2.51074 22 2.51074C22 3.22185 22 3.93296 22 4.6663C21.7778 4.6663 21.5334 4.6663 21.2889 4.6663C21.2889 4.19963 21.2889 3.73296 21.2889 3.22185C20.8 3.24408 20.3112 3.24408 19.8223 3.24408Z" fill="#1E88E5"/>
<path d="M2.71111 20.7552C3.22222 20.7552 3.68889 20.7552 4.15556 20.7552C4.15556 20.9996 4.15556 21.2218 4.15556 21.4663C3.44444 21.4663 2.71111 21.4663 2 21.4663C2 20.7552 2 20.0218 2 19.3107C2.22222 19.3107 2.46667 19.3107 2.71111 19.3107C2.71111 19.7996 2.71111 20.2663 2.71111 20.7552Z" fill="#1E88E5"/>
<path d="M19.8223 21.4885C19.8223 21.2441 19.8223 21.0218 19.8223 20.7774C20.3112 20.7774 20.7778 20.7774 21.2667 20.7774C21.2667 20.2885 21.2667 19.8218 21.2667 19.3329C21.5112 19.3329 21.7556 19.3329 22 19.3329C22 20.0441 22 20.7552 22 21.4885C21.2889 21.4885 20.5778 21.4885 19.8223 21.4885Z" fill="#1E88E5"/>
</svg>
