<svg width="25" height="24" viewBox="0 0 25 24" fill="#1E88E5" xmlns="http://www.w3.org/2000/svg">
<path d="M21.891 9.73095H20.4015H19.9015V10.231V17.4877C19.9015 17.5524 19.8487 17.6057 19.7831 17.6057C19.718 17.6057 19.6652 17.5529 19.6652 17.4877V10.231V9.73095H19.1652H17.943H17.443V10.231V13.7995C17.443 13.8653 17.3899 13.9179 17.325 13.9179C17.2597 13.9179 17.2066 13.8649 17.2066 13.7995V10.231V9.73095H16.7066H8.28395H7.78395V10.231V13.7995C7.78395 13.8653 7.7309 13.9179 7.66599 13.9179C7.60064 13.9179 7.54761 13.8649 7.54761 13.7995V10.231V9.73095H7.04761H5.82544H5.32544V10.231V17.4877C5.32544 17.5529 5.27261 17.6057 5.20748 17.6057C5.14191 17.6057 5.0891 17.5524 5.0891 17.4877V10.231V9.73095H4.5891H3.10224L5.9511 6.39355H19.042L21.891 9.73095Z" stroke="#1E88E5"/>
</svg>
