<svg width="25" height="24" viewBox="0 0 25 24" fill="#1E88E5" xmlns="http://www.w3.org/2000/svg">
<path d="M21.0153 11.6291V11.4307L20.8793 11.2863C20.7444 11.1431 20.6629 10.953 20.6629 10.7436C20.6629 10.3052 21.0184 9.94961 21.4569 9.94961C21.8953 9.94961 22.2504 10.305 22.25 10.7431V10.7436C22.25 10.7758 22.2469 10.8126 22.2403 10.8585L22.2352 10.8941V10.9301V14.705L22.2342 14.7117L22.2322 14.7272C22.2306 14.7391 22.2285 14.7559 22.2269 14.7752L22.2234 14.8179L22.2271 14.8606C22.229 14.8814 22.2314 14.8993 22.2332 14.9111L22.2349 14.9225C22.2228 15.353 21.8071 15.7912 21.1738 15.7912H20.5795H20.0795V16.2912V16.8334L19.925 16.1767L19.8343 15.7912H19.4383H5.94066H5.54454L5.45392 16.1768L5.29966 16.8332V16.2912V15.7912H4.79966H4.31136C3.67795 15.7912 3.26277 15.3537 3.25029 14.9232L3.25276 14.9063C3.25473 14.892 3.25726 14.8714 3.25876 14.8473L3.26107 14.8104L3.25794 14.7737C3.25635 14.755 3.25435 14.7388 3.25288 14.7274L3.25091 14.7126L3.25 14.7058V10.9425L3.25004 10.9423L3.25199 10.9278C3.25346 10.9165 3.25546 10.8999 3.25692 10.8806L3.26049 10.8334L3.25514 10.7863C3.25171 10.7562 3.25 10.7277 3.25 10.7003C3.25 10.2618 3.60557 9.90625 4.04403 9.90625C4.48248 9.90625 4.83805 10.2618 4.83805 10.7003C4.83805 10.9153 4.75273 11.1097 4.61262 11.2536L4.47078 11.3992V11.6025V13.5153V14.0153H4.97078H20.5153H21.0153V13.5153V11.6291ZM22.7352 10.9301C22.744 10.8691 22.75 10.8072 22.75 10.7436L20.5795 16.2912H21.0795H21.1738C22.0356 16.2912 22.7352 15.6698 22.7352 14.9032C22.7352 14.8855 22.7325 14.8682 22.7298 14.8509C22.728 14.8396 22.7262 14.8282 22.7252 14.8168C22.7263 14.8039 22.728 14.7914 22.7297 14.779C22.7324 14.7591 22.7352 14.7393 22.7352 14.7185V10.9301Z" fill="#1E88E5" stroke="#1E88E5"/>
<path d="M5.87677 12.5799C6.35334 9.21344 9.24526 6.62402 12.7431 6.62402C16.2411 6.62402 19.133 9.21364 19.6094 12.5799H5.87677Z" fill="#1E88E5" stroke="#1E88E5"/>
</svg>
