<svg xmlns="http://www.w3.org/2000/svg" width="24" height="24" viewBox="0 0 24 24" fill="none">
<path d="M21.4739 15.8417L21.4741 15.8424C21.4912 15.8934 21.4999 15.9467 21.5 16.0005V21V21.0003C21.5 21.0659 21.4871 21.1309 21.462 21.1915C21.4369 21.2522 21.4001 21.3073 21.3537 21.3537C21.3073 21.4001 21.2522 21.4369 21.1916 21.462C21.1309 21.4871 21.0659 21.5 21.0003 21.5H21H3H2.99971C2.93408 21.5 2.86908 21.4871 2.80844 21.462C2.74779 21.4369 2.69269 21.4001 2.64628 21.3537C2.59987 21.3073 2.56306 21.2522 2.53796 21.1915C2.51286 21.1309 2.49996 21.0659 2.5 21.0003V21V16.0002C2.50008 15.9466 2.50881 15.8933 2.52586 15.8424L2.52611 15.8417L5.47435 6.99596L5.5 6.91899V6.83786V2.99997V2.99968C5.49996 2.93405 5.51286 2.86905 5.53796 2.80841C5.56306 2.74776 5.59987 2.69266 5.64628 2.64625C5.69269 2.59984 5.74779 2.56303 5.80844 2.53793C5.86908 2.51283 5.93408 2.49993 5.99971 2.49997H6L18 2.49997L18.0003 2.49997C18.0659 2.49993 18.1309 2.51283 18.1916 2.53793C18.2522 2.56303 18.3073 2.59984 18.3537 2.64625C18.4001 2.69266 18.4369 2.74776 18.462 2.80841C18.4871 2.86905 18.5 2.93405 18.5 2.99968V2.99997V6.83786V6.91899L18.5257 6.99596L21.4739 15.8417ZM19 6.83786V2.99997C19.0001 2.86863 18.9743 2.73856 18.924 2.6172C18.8738 2.49584 18.8001 2.38557 18.7073 2.2927C18.6144 2.19982 18.5041 2.12617 18.3828 2.07594C18.2614 2.02571 18.1313 1.99989 18 1.99997L19 6.83786ZM3 22H21C21.1313 22 21.2614 21.9742 21.3828 21.924C21.5041 21.8738 21.6144 21.8001 21.7073 21.7072C21.8001 21.6144 21.8738 21.5041 21.924 21.3827C21.9743 21.2614 22.0001 21.1313 22 21L3 22ZM17.5 3.99997V3.49997H17H7H6.5V3.99997V5.99997V6.49997H7H17H17.5V5.99997V3.99997ZM3.5 20V20.5H4H20H20.5V20V17V16.5H20H4H3.5V17V20Z" stroke="#1E88E5"/>
</svg>