<svg width="25" height="24" viewBox="0 0 25 24" fill="#1E88E5" xmlns="http://www.w3.org/2000/svg">
<path d="M10.9987 2H4.58751C4.07665 2 3.66797 2.40868 3.66797 2.91954V19.7778C3.66797 20.2886 4.07665 20.6973 4.58751 20.6973H4.76631V21.9745H5.89019V20.6973H10.9987C11.5096 20.6973 11.9183 20.2886 11.9183 19.7778V2.94508C11.9438 2.43423 11.5096 2 10.9987 2ZM11.0498 12.9068H10.4113V10.2503H11.0498V12.9068Z" fill="#1E88E5"/>
<path d="M12.5566 2.94503V19.8033C12.5566 20.3141 12.9653 20.7228 13.4762 20.7228H18.5847V21.9999H19.7086V20.7228H19.913C20.4238 20.7228 20.8325 20.3141 20.8325 19.8033V2.94503C20.8325 2.43417 20.4238 2.02549 19.913 2.02549H13.5017C12.9909 1.99994 12.5566 2.43417 12.5566 2.94503ZM13.4506 10.2503H14.0892V12.9067H13.4506V10.2503Z" fill="#1E88E5"/>
</svg>
