<svg width="24" height="24" viewBox="0 0 24 24" fill="#1E88E5" xmlns="http://www.w3.org/2000/svg">
<path d="M22 6.23717C22 5.49216 21.3904 4.8826 20.6454 4.8826H3.35457C2.60956 4.8826 2 5.49216 2 6.23717V12.9702C2 14.265 3.05577 15.3208 4.3506 15.3208H19.6494C20.9442 15.3208 22 14.265 22 12.9702V6.23717H22ZM20.486 12.9702C20.486 13.4324 20.1115 13.8069 19.6494 13.8069H18.8128V12.5718C18.8128 11.4961 17.9363 10.6196 16.8606 10.6196H7.13945C6.06376 10.6196 5.18727 11.4961 5.18727 12.5718V13.8069H4.35062C3.88847 13.8069 3.51398 13.4324 3.51398 12.9702V6.39653H20.4861V12.9702H20.486Z" fill="#1E88E5"/>
<path d="M7.25502 7.75113H5.98012C5.56179 7.75113 5.22314 8.08977 5.22314 8.50811C5.22314 8.92644 5.56179 9.26508 5.98012 9.26508H7.25502C7.67336 9.26508 8.012 8.92644 8.012 8.50811C8.012 8.08977 7.67336 7.75113 7.25502 7.75113Z" fill="#1E88E5"/>
<rect x="11.7798" y="16.0258" width="0.718506" height="3.09167" rx="0.359253" fill="#1E88E5"/>
<rect x="8.14014" y="15.8711" width="0.718506" height="3.09167" rx="0.359253" transform="rotate(15 8.14014 15.8711)" fill="#1E88E5"/>
<rect x="15.166" y="16.057" width="0.718506" height="3.09167" rx="0.359253" transform="rotate(-15 15.166 16.057)" fill="#1E88E5"/>
</svg>
