<svg width="25" height="24" viewBox="0 0 25 24" fill="#1E88E5" xmlns="http://www.w3.org/2000/svg">
<path d="M11.583 13.75H22.2497V21.5H11.583V13.75Z" fill="#1E88E5" stroke="#1E88E5"/>
<path d="M3.25 21.5V13.75H9.75V21.5H3.25ZM8.16667 18.9583C8.6794 18.9583 9.08333 18.5437 9.08333 18.0417V17.2083C9.08333 16.7063 8.6794 16.2917 8.16667 16.2917C7.66136 16.2917 7.25 16.703 7.25 17.2083V18.0417C7.25 18.547 7.66136 18.9583 8.16667 18.9583Z" fill="#1E88E5" stroke="#1E88E5"/>
<path d="M3.25 11.9167V2.5H9.75V11.9167H3.25ZM8.16667 8.95833C8.6794 8.95833 9.08333 8.5437 9.08333 8.04167V6.375C9.08333 5.87297 8.6794 5.45833 8.16667 5.45833C7.66136 5.45833 7.25 5.8697 7.25 6.375V8.04167C7.25 8.54697 7.66136 8.95833 8.16667 8.95833Z" fill="#1E88E5" stroke="#1E88E5"/>
<path d="M20.8224 9.41667H13.0153L15.1202 7.9429L15.3334 7.79361V7.53332V2.5H18.5V7.52915V7.78932L18.7131 7.93863L20.8224 9.41667Z" fill="#1E88E5" stroke="#1E88E5"/>
</svg>
