<svg width="24" height="24" viewBox="0 0 24 24" fill="#1E88E5" xmlns="http://www.w3.org/2000/svg">
<path d="M13.0924 13.7234V13.9305L13.2388 14.077L19.3467 20.1849H13.5697H13.1547L13.0782 20.5927C12.9831 21.0999 12.5402 21.5001 12.0051 21.5001C11.4636 21.5001 11.0271 21.1166 10.9324 20.5954L10.8577 20.1849H10.4404H4.66622L10.7701 14.1236L10.9177 13.9769V13.7688V13.1338C10.9177 12.9735 11.0017 12.8343 11.09 12.7725L11.3032 12.6232V12.3629V11.728C11.3032 11.586 11.4067 11.4797 11.5515 11.4797H11.7556H12.2556V11.4343H12.2772H12.4586C12.6006 11.4343 12.7069 11.5378 12.7069 11.6826V12.3175V12.5778L12.9201 12.7271C13.0084 12.7889 13.0924 12.9282 13.0924 13.0885V13.7234ZM12.6536 2.50006L12.0183 3.53071L11.397 2.50006H12.6536Z" stroke="#1E88E5"/>
</svg>
