<svg width="25" height="24" viewBox="0 0 25 24" fill="#1E88E5" xmlns="http://www.w3.org/2000/svg">
<path d="M16.0347 13.0327L17.128 10.6587C18.984 11.517 20.7238 12.3504 21.3763 12.7015C21.5292 12.7839 21.6634 12.8937 21.7783 13.0327H16.0347Z" fill="#1E88E5" stroke="#1E88E5"/>
<mask id="path-2-inside-1_3342_24590" fill="#1E88E5">
<path d="M15.541 9.3877L13.5703 13.5326H14.3223L16.1131 9.64485C15.9202 9.55772 15.7299 9.47229 15.541 9.3877Z"/>
</mask>
<path d="M15.541 9.3877L13.5703 13.5326H14.3223L16.1131 9.64485C15.9202 9.55772 15.7299 9.47229 15.541 9.3877Z" fill="#1E88E5"/>
<path d="M15.541 9.3877L15.9498 8.47507L15.0577 8.07545L14.6379 8.9583L15.541 9.3877ZM13.5703 13.5326L12.6672 13.1032L11.9876 14.5326H13.5703V13.5326ZM14.3223 13.5326V14.5326H14.9627L15.2306 13.951L14.3223 13.5326ZM16.1131 9.64485L17.0214 10.0632L17.4428 9.14825L16.5248 8.73353L16.1131 9.64485ZM14.6379 8.9583L12.6672 13.1032L14.4734 13.962L16.4442 9.81709L14.6379 8.9583ZM13.5703 14.5326H14.3223V12.5326H13.5703V14.5326ZM15.2306 13.951L17.0214 10.0632L15.2048 9.22648L13.414 13.1142L15.2306 13.951ZM16.5248 8.73353C16.3305 8.64578 16.1391 8.55985 15.9498 8.47507L15.1323 10.3003C15.3207 10.3847 15.5099 10.4697 15.7014 10.5562L16.5248 8.73353Z" fill="#1E88E5" mask="url(#path-2-inside-1_3342_24590)"/>
<path d="M12.2046 7.95519C12.0439 7.89598 11.8603 7.93743 11.7436 8.066L12.0769 8.44159M12.2046 7.95519L12.0556 8.34922L12.0549 8.35098L12.0277 8.42284C12.0438 8.42893 12.0602 8.43517 12.0769 8.44159M12.2046 7.95519C12.3874 8.02432 12.6094 8.11348 12.8599 8.2173L12.2046 7.95519ZM12.0769 8.44159C11.6764 8.86164 11.0362 9.25474 10.3377 9.54426C9.61111 9.84536 8.76451 10.0582 7.96075 10.0582C7.39434 10.0582 6.46548 9.9484 5.86394 9.2466C5.49278 8.81459 4.98929 8.58038 4.53908 8.58038C4.24204 8.58038 3.93079 8.68573 3.69354 8.9299C3.45989 9.17038 3.25 9.59558 3.25 10.3254V13.0322H10.6215L12.649 8.67111C12.4322 8.5814 12.2392 8.50378 12.0769 8.44159Z" fill="#1E88E5" stroke="#1E88E5"/>
<mask id="path-5-inside-2_3342_24590" fill="#1E88E5">
<path d="M14.0986 8.74609L11.873 13.5322H12.6335L14.7677 9.03962C14.5376 8.93811 14.3152 8.84083 14.0986 8.74609Z"/>
</mask>
<path d="M14.0986 8.74609L11.873 13.5322H12.6335L14.7677 9.03962C14.5376 8.93811 14.3152 8.84083 14.0986 8.74609Z" fill="#1E88E5"/>
<path d="M14.0986 8.74609L14.4994 7.82994L13.604 7.43817L13.1919 8.32445L14.0986 8.74609ZM11.873 13.5322L10.9663 13.1105L10.3052 14.5322H11.873V13.5322ZM12.6335 13.5322V14.5322H13.2656L13.5368 13.9613L12.6335 13.5322ZM14.7677 9.03962L15.671 9.46872L16.1123 8.53981L15.1714 8.1247L14.7677 9.03962ZM13.1919 8.32445L10.9663 13.1105L12.7798 13.9538L15.0054 9.16774L13.1919 8.32445ZM11.873 14.5322H12.6335V12.5322H11.873V14.5322ZM13.5368 13.9613L15.671 9.46872L13.8645 8.61053L11.7303 13.1031L13.5368 13.9613ZM15.1714 8.1247C14.9396 8.02245 14.7156 7.92451 14.4994 7.82994L13.6978 9.66225C13.9147 9.75716 14.1357 9.85378 14.3641 9.95454L15.1714 8.1247Z" fill="#1E88E5" mask="url(#path-5-inside-2_3342_24590)"/>
<path d="M21.9502 15.2543L21.9489 15.2556C21.7533 15.4554 21.4778 15.5707 21.1991 15.5707H3.25V14.8789L22.1867 14.8791C22.1358 15.0187 22.0555 15.1476 21.9502 15.2543Z" fill="#1E88E5" stroke="#1E88E5"/>
</svg>
