<svg width="24" height="24" viewBox="0 0 24 24" fill="#1E88E5" xmlns="http://www.w3.org/2000/svg">
<path d="M19.9339 9.68859C20.2624 9.788 20.5531 10.086 20.7144 10.5891C20.8749 11.0898 20.886 11.7462 20.679 12.43C20.472 13.1139 20.0988 13.654 19.6876 13.9817C19.2744 14.3108 18.8672 14.3976 18.5387 14.2982C18.2103 14.1988 17.9195 13.9008 17.7582 13.3977C17.5977 12.897 17.5867 12.2406 17.7937 11.5567C18.0007 10.8729 18.3739 10.3327 18.7851 10.0051C19.1983 9.67594 19.6055 9.58917 19.9339 9.68859Z" stroke="#1E88E5"/>
<path d="M14.7716 13.8002C15.4251 14.87 16.2215 15.8456 17.1387 16.7001L17.1386 16.7002L17.148 16.7086C17.5537 17.0679 17.882 17.506 18.113 17.9962C18.4268 18.7052 18.4484 19.3676 18.11 20.0278L18.1067 20.0343L18.1036 20.0408C18.0021 20.2538 17.8427 20.4338 17.6437 20.5603C17.4446 20.6868 17.2139 20.7547 16.9781 20.7561L16.9738 20.7562C16.4555 20.7638 15.9379 20.7137 15.4307 20.607L15.4215 20.6051L15.4123 20.6035C14.5107 20.4488 13.6087 20.2972 12.7061 20.1487L12.7058 20.1486C12.5087 20.1163 12.3026 20.0917 12.1101 20.0687C12.0271 20.0588 11.9467 20.0492 11.8705 20.0394L11.8223 20.0332L11.7737 20.0364C11.0794 20.0822 10.3896 20.1806 9.71017 20.3307C9.63269 20.3463 9.55549 20.3618 9.47852 20.3773C8.94982 20.4838 8.43219 20.588 7.9113 20.6717L7.90226 20.6732L7.89328 20.675C7.47449 20.7581 7.04345 20.7578 6.6248 20.6743C6.24711 20.5834 5.91385 20.3614 5.68449 20.0477C5.45503 19.7338 5.34458 19.3487 5.37271 18.961C5.42777 18.4578 5.60263 17.9751 5.88267 17.5534L5.88279 17.5534L5.889 17.5436C6.18104 17.0807 6.54373 16.6664 6.96389 16.3158C7.48502 15.8989 7.96772 15.4361 8.40617 14.933L8.41267 14.9256L8.41886 14.9179C8.71084 14.5548 8.98702 14.1741 9.25449 13.8055C9.33778 13.6907 9.42022 13.577 9.50204 13.4654L9.50761 13.4578L9.5129 13.45C9.79511 13.033 10.1055 12.6358 10.4419 12.2612L10.444 12.2589C10.8098 11.8463 11.3008 11.5653 11.8416 11.4587C12.6049 11.3352 13.3847 11.54 13.8478 12.2757C14.0341 12.5718 14.2076 12.862 14.3843 13.1578C14.5098 13.3678 14.6369 13.5806 14.7716 13.8002ZM14.7716 13.8002C14.7715 13.8001 14.7714 13.8 14.7714 13.7999L15.1981 13.5393M14.7716 13.8002C14.7716 13.8003 14.7717 13.8005 14.7718 13.8006L15.1981 13.5393M15.1981 13.5393C15.8279 14.5704 16.5955 15.5107 17.4796 16.3343C17.9375 16.7399 18.3078 17.2347 18.5678 17.7884C18.9337 18.6118 18.9748 19.4367 18.5549 20.2559L15.1981 13.5393ZM16.9811 21.256V21.2561V21.256Z" stroke="#1E88E5"/>
<path d="M10.5707 6.42783C10.8225 7.26646 10.8088 8.07549 10.6077 8.69787C10.4059 9.32263 10.0368 9.71151 9.60165 9.84217C9.16649 9.97282 8.64427 9.85156 8.13167 9.4413C7.62104 9.03261 7.16391 8.36495 6.91211 7.52632C6.66031 6.68769 6.67406 5.87865 6.87511 5.25628C7.07694 4.63151 7.44599 4.24264 7.88116 4.11198C8.31632 3.98132 8.83854 4.10259 9.35114 4.51285C9.86177 4.92154 10.3189 5.58919 10.5707 6.42783Z" stroke="#1E88E5"/>
<path d="M16.1452 3.91984C16.58 4.05147 16.9482 4.44116 17.1487 5.06637C17.3483 5.6892 17.3603 6.49826 17.1066 7.33633C16.8529 8.1744 16.3943 8.84104 15.8828 9.24859C15.3693 9.65771 14.8468 9.77782 14.4119 9.64619C13.977 9.51457 13.6089 9.12487 13.4084 8.49966C13.2088 7.87684 13.1968 7.06778 13.4505 6.22971C13.7041 5.39163 14.1627 4.725 14.6743 4.31744C15.1878 3.90832 15.7103 3.78822 16.1452 3.91984Z" stroke="#1E88E5"/>
<path d="M6.32219 11.5301C6.53358 12.2341 6.5209 12.91 6.35425 13.4259C6.18683 13.9441 5.88551 14.2532 5.54326 14.356C5.20101 14.4587 4.77929 14.3668 4.35407 14.0264C3.93081 13.6877 3.54794 13.1306 3.33655 12.4266C3.12517 11.7225 3.13784 11.0467 3.30449 10.5308C3.47192 10.0125 3.77323 9.70346 4.11549 9.6007C4.45774 9.49794 4.87946 9.5899 5.30468 9.93023C5.72794 10.269 6.11081 10.8261 6.32219 11.5301Z" stroke="#1E88E5"/>
</svg>
