<svg width="25" height="24" viewBox="0 0 25 24" fill="#1E88E5" xmlns="http://www.w3.org/2000/svg">
<path d="M21.6786 12.001H21.3214H19.1786H13.8214H11.6786H6.32143H4.17857H3.82143C3.23214 12.001 2.75 12.4831 2.75 13.0724V20.2153C2.75 20.4117 2.91071 20.5724 3.10714 20.5724H5.60714C5.76786 20.5724 5.90714 20.4653 5.95 20.3117L6.58929 18.0724H18.9107L19.55 20.3117C19.5929 20.4653 19.7321 20.5724 19.8929 20.5724H22.3929C22.5893 20.5724 22.75 20.4117 22.75 20.2153V13.0724C22.75 12.4831 22.2679 12.001 21.6786 12.001Z" fill="#1E88E5"/>
<path d="M6.32157 11.2867V9.85809C6.32157 9.26881 6.80371 8.78666 7.393 8.78666H10.6073C11.1966 8.78666 11.6787 9.26881 11.6787 9.85809V11.2867H13.8216V9.85809C13.8216 9.26881 14.3037 8.78666 14.893 8.78666H18.1073C18.6966 8.78666 19.1787 9.26881 19.1787 9.85809V11.2867H20.6073H21.3216V3.78666C21.3216 3.59023 21.1609 3.42952 20.9644 3.42952H18.4644C18.2787 3.42952 18.1251 3.57238 18.1073 3.75809L18.0394 4.57952C14.9609 3.04381 10.5394 3.04381 7.46085 4.57952L7.393 3.75809C7.37514 3.57238 7.22157 3.42952 7.03585 3.42952H4.53585C4.33943 3.42952 4.17871 3.59023 4.17871 3.78666V11.2867H4.893H6.32157Z" fill="#1E88E5"/>
<path d="M7.39328 9.50098C7.19685 9.50098 7.03613 9.66169 7.03613 9.85812V11.2867H10.9647V9.85812C10.9647 9.66169 10.804 9.50098 10.6076 9.50098H7.39328Z" fill="#1E88E5"/>
<path d="M14.8933 9.50098C14.6968 9.50098 14.5361 9.66169 14.5361 9.85812V11.2867H18.4647V9.85812C18.4647 9.66169 18.304 9.50098 18.1076 9.50098H14.8933Z" fill="#1E88E5"/>
</svg>
