<svg width="25" height="24" viewBox="0 0 25 24" fill="#1E88E5" xmlns="http://www.w3.org/2000/svg">
<path d="M21.9068 2.01562H2.56201C2.40601 2.01562 2.25 2.17163 2.25 2.32764V5.91578C2.25 6.07179 2.3748 6.22779 2.56201 6.22779C3.52925 6.22779 3.59165 8.03747 4.99571 8.03747C5.77574 8.03747 6.15016 7.44464 6.46217 7.00783C7.1486 5.97818 7.67902 5.94698 8.36544 7.00783C9.30148 8.41188 10.3311 8.44308 11.2984 7.00783C12.016 5.94698 12.5152 5.94698 13.2016 7.00783C14.1377 8.41188 15.1673 8.44308 16.1346 7.00783C16.821 5.94698 17.3514 5.94698 18.0378 7.00783C19.0051 8.44308 20.0347 8.38068 20.9707 7.00783C21.2828 6.53981 21.5012 6.22779 21.938 6.22779C22.094 6.22779 22.25 6.10299 22.25 5.91578V2.32764C22.2188 2.17163 22.094 2.01562 21.9068 2.01562Z" fill="#1E88E5"/>
<path d="M21.4697 7.31943C19.3169 10.5956 17.2264 6.82021 17.1016 6.82021C16.852 6.82021 16.5399 7.72505 15.8535 8.22427C16.7272 10.5644 17.9128 12.218 19.2233 12.9357L19.2545 13.2789C19.3793 12.7172 19.9097 12.3116 20.4713 12.3116H22.2186V6.75781C22.125 6.78901 22.0314 6.82021 21.9066 6.82021C21.8442 6.82021 21.7506 6.88262 21.4697 7.31943Z" fill="#1E88E5"/>
<path d="M19.8164 13.5605C19.8164 13.9038 20.0972 14.1846 20.4092 14.2158L22.2189 14.3094V12.9365H20.4716C20.0972 12.9365 19.8164 13.2173 19.8164 13.5605Z" fill="#1E88E5"/>
<path d="M19.3176 14.0908L19.38 14.59C17.9759 16.9613 17.5079 21.4543 17.5079 21.6415C17.4767 21.8287 17.6327 21.9847 17.8199 21.9847H21.9073C22.0633 21.9847 22.2193 21.8599 22.2193 21.6727V14.9021C20.9088 14.746 19.8168 15.1517 19.3176 14.0908Z" fill="#1E88E5"/>
<path d="M4.40289 14.2157C4.6837 14.1845 4.99571 13.9349 4.99571 13.5605C4.99571 13.1861 4.7149 12.9053 4.34048 12.9053H2.25V14.2781C5.05811 14.1845 4.27808 14.2157 4.40289 14.2157Z" fill="#1E88E5"/>
<path d="M5.08931 14.5586C4.90211 14.7146 4.6837 14.8082 4.43409 14.8394C4.40289 14.8394 4.37169 14.8394 4.37169 14.8394L2.25 14.9018C2.25 15.1514 2.25 21.4541 2.25 21.6725C2.25 21.8285 2.3748 21.9845 2.56201 21.9845H6.68058C6.83658 21.9845 6.99259 21.8597 6.99259 21.6725C6.99259 21.6413 6.99259 21.6101 6.99259 21.5789C6.93019 21.0173 6.43097 16.8363 5.08931 14.5586Z" fill="#1E88E5"/>
<path d="M7.86623 7.31943C7.42941 6.63301 7.39821 6.66421 6.96139 7.31943C6.64938 7.81865 6.08775 8.62989 4.99571 8.62989C3.37325 8.62989 2.93643 6.82021 2.56201 6.82021C2.46841 6.82021 2.3436 6.78901 2.25 6.75781V11.9372V12.3116H4.34048C4.7461 12.3116 5.15172 12.4988 5.40133 12.8733C6.68058 12.1244 7.80382 10.502 8.67746 8.22427C8.27184 7.97466 8.02223 7.60025 7.86623 7.31943Z" fill="#1E88E5"/>
</svg>
