<svg width="25" height="24" viewBox="0 0 25 24" fill="#1E88E5" xmlns="http://www.w3.org/2000/svg">
<path d="M16.8895 20.4998L16.8895 20.4998H16.883H8.11679V20.4997L8.11027 20.4998C7.4987 20.5078 6.90889 20.2731 6.46998 19.8471C6.03205 19.4221 5.77995 18.8412 5.76856 18.2312C5.76971 16.4475 6.47877 14.7371 7.74011 13.4758C9.00248 12.2134 10.7146 11.5042 12.4999 11.5042C14.2851 11.5042 15.9973 12.2134 17.2596 13.4758C18.521 14.7371 19.2301 16.4475 19.2312 18.2312C19.2198 18.8413 18.9677 19.4221 18.5298 19.8471C18.0909 20.2731 17.5011 20.5078 16.8895 20.4998ZM9.58481 6.38541C9.71841 2.53798 15.2819 2.5384 15.415 6.38541C15.2814 10.2329 9.71786 10.2325 9.58481 6.38541Z" stroke="#1E88E5"/>
<rect x="6.61865" y="9.7578" width="18.491" height="1.26991" rx="0.634954" transform="rotate(33.0075 6.61865 9.7578)" fill="#1E88E5"/>
</svg>
