<svg width="25" height="24" viewBox="0 0 25 24" fill="#1E88E5" xmlns="http://www.w3.org/2000/svg">
<path d="M12.498 2H12.261C11.399 2 10.7002 2.69883 10.7002 3.56087V14.1707C10.7002 15.0328 11.399 15.7316 12.261 15.7316H12.498V2Z" fill="#1E88E5"/>
<path d="M19.3454 2H19.1084V15.7315H19.3454C20.2074 15.7315 20.9063 15.0327 20.9063 14.1707V3.56087C20.9063 2.69883 20.2074 2 19.3454 2Z" fill="#1E88E5"/>
<path d="M13.8424 18.5315H13.5095C13.4721 18.5315 13.4357 18.5277 13.4 18.5217V19.4212C13.4 20.4787 12.5397 21.339 11.4821 21.339H8.49754C7.44004 21.339 6.57967 20.4787 6.57967 19.4212V11.0674C6.50575 11.0911 6.42708 11.1041 6.34527 11.1041H6.15339C6.07158 11.1041 5.99286 11.0911 5.91895 11.0674V19.4212C5.91895 20.8431 7.07574 21.9998 8.49758 21.9998H11.4822C12.904 21.9998 14.0608 20.843 14.0608 19.4212V18.4938C13.9924 18.5178 13.9191 18.5315 13.8424 18.5315Z" fill="#1E88E5"/>
<path d="M6.2487 7.02139C5.93924 7.02139 5.64612 6.95011 5.38477 6.82329V9.98058C5.38477 10.4047 5.72863 10.7486 6.1528 10.7486H6.34469C6.76882 10.7486 7.11268 10.4047 7.11268 9.98058V6.82324C6.85132 6.95011 6.55821 7.02139 6.2487 7.02139Z" fill="#1E88E5"/>
<path d="M6.24894 3.38086C5.33483 3.38086 4.59375 4.12194 4.59375 5.03609C4.59375 5.95025 5.33483 6.69128 6.24894 6.69128C7.16305 6.69128 7.90413 5.9502 7.90413 5.03609C7.90413 4.12194 7.16309 3.38086 6.24894 3.38086ZM6.24894 5.57466C5.9515 5.57466 5.71037 5.33353 5.71037 5.03609C5.71037 4.73866 5.9515 4.49752 6.24894 4.49752C6.54637 4.49752 6.78751 4.73866 6.78751 5.03609C6.78751 5.33353 6.54637 5.57466 6.24894 5.57466Z" fill="#1E88E5"/>
<path d="M12.8477 16.084V17.5099C12.8477 17.875 13.1436 18.171 13.5088 18.171H13.8417C14.2069 18.171 14.5028 17.875 14.5028 17.5099V16.084H12.8477Z" fill="#1E88E5"/>
<path d="M17.0723 16.084V17.5099C17.0723 17.875 17.3683 18.171 17.7334 18.171H18.0663C18.4315 18.171 18.7275 17.875 18.7275 17.5099V16.084H17.0723Z" fill="#1E88E5"/>
<path d="M18.0666 18.5316H17.7336C17.668 18.5316 17.6048 18.5217 17.5449 18.5039V21.6056C17.5449 21.788 17.6928 21.936 17.8753 21.936C18.0578 21.936 18.2057 21.788 18.2057 21.6056V18.5166C18.1608 18.5263 18.1143 18.5316 18.0666 18.5316Z" fill="#1E88E5"/>
<path d="M12.8291 2V15.7315H18.7791V2H12.8291ZM15.1123 4.15742H16.4959C16.6783 4.15742 16.8262 4.30534 16.8262 4.4878C16.8262 4.67026 16.6783 4.81819 16.4959 4.81819H15.1123C14.9298 4.81819 14.7819 4.67026 14.7819 4.4878C14.7819 4.30534 14.9298 4.15742 15.1123 4.15742ZM17.1303 12.8445C17.1303 13.577 16.5365 14.1707 15.8041 14.1707C15.0717 14.1707 14.4779 13.5769 14.4779 12.8445V10.9594C14.4966 10.9626 14.5157 10.9647 14.5353 10.9647H17.0729C17.0925 10.9647 17.1116 10.9627 17.1303 10.9594V12.8445ZM17.1303 10.3092C17.1116 10.3059 17.0925 10.3039 17.0729 10.3039H14.5353C14.5157 10.3039 14.4966 10.3059 14.4779 10.3092V8.42402C14.4779 7.69162 15.0717 7.09785 15.8041 7.09785C16.5366 7.09785 17.1303 7.69162 17.1303 8.42402V10.3092Z" fill="#1E88E5"/>
</svg>
