<svg width="25" height="24" viewBox="0 0 25 24" fill="#1E88E5" xmlns="http://www.w3.org/2000/svg">
<path d="M12.3336 4.6499C7.55357 4.6499 3.66357 8.5399 3.66357 13.3199C3.66357 18.0999 7.55357 21.9999 12.3336 21.9999C17.1136 21.9999 21.0036 18.1099 21.0036 13.3299C21.0036 8.5499 17.1136 4.6499 12.3336 4.6499ZM13.0836 12.9999C13.0836 13.4099 12.7436 13.7499 12.3336 13.7499C11.9236 13.7499 11.5836 13.4099 11.5836 12.9999V7.9999C11.5836 7.5899 11.9236 7.2499 12.3336 7.2499C12.7436 7.2499 13.0836 7.5899 13.0836 7.9999V12.9999Z" fill="#1E88E5"/>
<path d="M15.2236 2.95H9.44363C9.31978 2.95 9.22363 2.85386 9.22363 2.73C9.22363 2.59712 9.32871 2.5 9.44363 2.5H15.2236C15.3475 2.5 15.4436 2.59614 15.4436 2.72C15.4436 2.85288 15.3386 2.95 15.2236 2.95Z" stroke="#1E88E5"/>
</svg>
